# xmcd
#
# Track frame offsets: 
#        150
#        13957
#        24726
#        37027
#        46563
#        57921
#        67712
#        79874
#        93276
#        105643
#        114932
#        129475
#        141725
#        157549
#        168282
#        182188
#        193412
#        205492
#        220470
#        231289
#        243606
#        256020
#        271802
#        287043
#        302927
#
# Disc length: 4219 seconds
#
# Revision: 3
# Processed by: cddbd v1.5.1PL0 Copyright (c) Steve Scherf et al.
# Submitted via: ExactAudioCopy v0.95a5
#
DISCID=68107919
DTITLE=Various Artist - The In Crowd - The Story of Northern Soul (compiled b
DTITLE=y Mike Ritson and Stuart Russell) [CD2]
DYEAR=2001
DGENRE=Castle/Sanctuary
TTITLE0=The Dells - Run for Cover
TTITLE1=Nella Dodds - Come Back Baby
TTITLE2=The Charts - Desiree
TTITLE3=Linda Lyndell - Bring Your Love Back
TTITLE4=Johnny Copeland - Sufferin' City
TTITLE5=Sam Ward - Sister Lee
TTITLE6=J.J. Barnes - Sweet Sherry
TTITLE7=Earl Wright and His Orchestra - Thumb a Ride
TTITLE8=The Ideals - Mighty Lover
TTITLE9=The Charades - Key to My Happiness
TTITLE10=Moses Smith - The Girl Across the Street
TTITLE11=Otis Smith - Let Her Go
TTITLE12=The Devones - I'm Gonna Pick Up My Toys
TTITLE13=The Yum Yums - Gonna Be a Big Thing
TTITLE14=Doni Burdick - Bari Track
TTITLE15=The Shepphards - Stubborn Heart
TTITLE16=Curtis Blandon - In the Long Run
TTITLE17=Patti Austin - Didn't Say a Word
TTITLE18=Cody Black - Mr. Blue
TTITLE19=Lenny Curtis - Nothing Can Help You Now
TTITLE20=Jackie Beavers - I Need My Baby
TTITLE21=The Carstairs - It Really Hurts Me Girl
TTITLE22=Eloise Laws - Love Factory
TTITLE23=Larry Sanders - On the Real Side
TTITLE24=Young-Holt Unlimited - California Montage
EXTD=
EXTT0=
EXTT1=
EXTT2=
EXTT3=
EXTT4=
EXTT5=
EXTT6=
EXTT7=
EXTT8=
EXTT9=
EXTT10=
EXTT11=
EXTT12=
EXTT13=
EXTT14=
EXTT15=
EXTT16=
EXTT17=
EXTT18=
EXTT19=
EXTT20=
EXTT21=
EXTT22=
EXTT23=
EXTT24=
PLAYORDER=
